<svg xmlns="http://www.w3.org/2000/svg" width="64" height="64" fill="none" class="icon">
  <circle cx="17.5" cy="16.5" r=".5" fill="#dcc8fa"/>
  <circle cx="17.5" cy="11.5" r=".5" fill="#dcc8fa"/>
  <circle cx="48.5" cy="11.5" r=".5" fill="#dcc8fa"/>
  <circle cx="48.5" cy="16.5" r=".5" fill="#dcc8fa"/>
  <circle cx="12.5" cy="16.5" r=".5" fill="#dcc8fa"/>
  <circle cx="53.5" cy="16.5" r=".5" fill="#dcc8fa"/>
  <circle cx="12.5" cy="47.5" r=".5" fill="#dcc8fa"/>
  <circle cx="53.5" cy="47.5" r=".5" fill="#dcc8fa"/>
  <circle cx="17.5" cy="47.5" r=".5" fill="#dcc8fa"/>
  <circle cx="17.5" cy="52.5" r=".5" fill="#dcc8fa"/>
  <circle cx="48.5" cy="52.5" r=".5" fill="#dcc8fa"/>
  <circle cx="48.5" cy="47.5" r=".5" fill="#dcc8fa"/>
  <path stroke="#dcc8fa" stroke-linecap="round" stroke-linejoin="round" stroke-width="2" d="M37 22H15a4 4 0 0 0-4 4v12a4 4 0 0 0 4 4h8m20-20h8a4 4 0 0 1 4 4v12a4 4 0 0 1-4 4H29m8-14H17v8h6m20-8h6v8H29"/>
  <path stroke="#dcc8fa" stroke-linecap="round" stroke-linejoin="round" stroke-width="2" d="M43 36V14a4 4 0 0 0-4-4H27a4 4 0 0 0-4 4v8m20 20v8a4 4 0 0 1-4 4H27a4 4 0 0 1-4-4V28m14 8V16h-8v6m8 20v6h-8V28"/>
  <circle cx="33" cy="32" r="1" fill="#dcc8fa"/>
</svg>
