<svg xmlns="http://www.w3.org/2000/svg" width="64" height="64" fill="none" class="icon">
  <circle cx="19.5" cy="49.5" r=".5" fill="#dcc8fa"/>
  <circle cx="24.5" cy="49.5" r=".5" fill="#dcc8fa"/>
  <circle cx="29.5" cy="49.5" r=".5" fill="#dcc8fa"/>
  <circle cx="34.5" cy="49.5" r=".5" fill="#dcc8fa"/>
  <circle cx="39.5" cy="49.5" r=".5" fill="#dcc8fa"/>
  <circle cx="44.5" cy="49.5" r=".5" fill="#dcc8fa"/>
  <circle cx="56.5" cy="14.5" r=".5" fill="#dcc8fa"/>
  <circle cx="56.5" cy="19.5" r=".5" fill="#dcc8fa"/>
  <circle cx="56.5" cy="24.5" r=".5" fill="#dcc8fa"/>
  <circle cx="56.5" cy="29.5" r=".5" fill="#dcc8fa"/>
  <circle cx="56.5" cy="34.5" r=".5" fill="#dcc8fa"/>
  <circle cx="56.5" cy="39.5" r=".5" fill="#dcc8fa"/>
  <circle cx="56.5" cy="44.5" r=".5" fill="#dcc8fa"/>
  <circle cx="56.5" cy="49.5" r=".5" fill="#dcc8fa"/>
  <circle cx="32" cy="39" r="1" fill="#dcc8fa"/>
  <circle cx="37" cy="39" r="1" fill="#dcc8fa"/>
  <circle cx="42" cy="39" r="1" fill="#dcc8fa"/>
  <path stroke="#dcc8fa" stroke-linejoin="round" stroke-width="2" d="M51 10H13a2 2 0 0 0-2 2v40a2 2 0 0 0 2 2h38a2 2 0 0 0 2-2V12a2 2 0 0 0-2-2Z"/>
  <path stroke="#dcc8fa" stroke-linejoin="round" stroke-width="2" d="M27 16h-8a2 2 0 0 0-2 2v6a2 2 0 0 0 2 2h8a2 2 0 0 0 2-2v-6a2 2 0 0 0-2-2Z"/>
  <path stroke="#dcc8fa" stroke-linecap="round" stroke-width="2" d="M35 17h12M35 21h12M35 25h8"/>
  <path stroke="#dcc8fa" stroke-linejoin="round" stroke-width="2" d="M45 32H19a2 2 0 0 0-2 2v9a2 2 0 0 0 2 2h26a2 2 0 0 0 2-2v-9a2 2 0 0 0-2-2Z"/>
  <path stroke="#dcc8fa" stroke-linecap="round" stroke-linejoin="round" stroke-width="2" d="M7 57 57 7"/>
</svg>
